<svg width="100" height="100" viewBox="0 0 100 100" fill="none" xmlns="http://www.w3.org/2000/svg">
<rect width="100" height="100" rx="20" fill="#4682B4"/>
<path d="M68.5 43V29.5H31.5V43L25 49.5V68.5H43.5V56.5H56.5V68.5H75V49.5L68.5 43ZM40.375 38.875C41.3917 38.875 42.2292 38.0375 42.2292 37C42.2292 35.9625 41.3917 35.125 40.375 35.125C39.3583 35.125 38.5208 35.9625 38.5208 37C38.5208 38.0375 39.3583 38.875 40.375 38.875ZM33.3542 41.75V34.25H36.6458V41.75H33.3542ZM63 52C61.9625 52 61.125 51.1625 61.125 50.125C61.125 49.0875 61.9625 48.25 63 48.25C64.0375 48.25 64.875 49.0875 64.875 50.125C64.875 51.1625 64.0375 52 63 52ZM66.6458 41.75H63.3542V34.25H66.6458V41.75Z" fill="#D1DCE3"/>
</svg>
